<?xml version="1.0" encoding="utf-8"?>
<!-- Generator: Adobe Illustrator 16.0.0, SVG Export Plug-In . SVG Version: 6.00 Build 0)  -->
<!DOCTYPE svg PUBLIC "-//W3C//DTD SVG 1.1//EN" "http://www.w3.org/Graphics/SVG/1.1/DTD/svg11.dtd">
<svg version="1.1" id="Layer_1" xmlns="http://www.w3.org/2000/svg" xmlns:xlink="http://www.w3.org/1999/xlink" x="0px" y="0px"
	 width="511px" height="511px" viewBox="0 0 511 511" enable-background="new 0 0 511 511" xml:space="preserve">
<path fill="#585858" d="M395.601,409.933l-16.709-25.057c-5.014-7.489-15.614-9.037-22.546-2.765
	c-27.614,25.189-63.435,39.064-100.846,39.064c0-3.014,0-17.969,0-14.951c0-11.127-11.711-18.366-21.665-13.392l-74.854,44.896
	c-11.033,5.517-11.033,21.259,0,26.779l74.854,45.887c9.953,4.979,21.665-2.257,21.665-13.388c0-3.018,0-17.965,0-14.951
	c50.585,0,99.415-19.302,137.485-52.546C398.657,424.567,399.769,416.189,395.601,409.933z"/>
<path fill="#585858" d="M119.165,234.833L74.272,159.98c-5.521-11.037-21.263-11.037-26.779,0L1.599,234.833
	c-4.975,9.953,2.265,21.665,13.392,21.665c3.018,0,18.963,0,15.949,0c0,50.584,18.304,99.415,51.547,137.484
	c4.944,5.677,13.326,6.784,19.579,2.616l25.072-16.709c7.677-5.139,8.889-15.856,2.749-22.542
	c-25.189-27.618-39.064-63.446-39.064-100.857c3.014,0,17.965,0,14.951,0C116.904,256.49,124.14,244.787,119.165,234.833z"/>
<path fill="#585858" d="M154.654,130.884C182.269,105.695,218.089,91.82,255.5,91.82c0,3.014,0,17.965,0,14.951
	c0,11.126,11.711,18.366,21.664,13.388l74.854-44.893c11.033-5.517,11.033-21.259,0-26.779L277.164,2.597
	C267.211-2.378,255.5,4.861,255.5,15.988c0,3.014,0,18.967,0,15.949c-50.584,0-99.415,18.304-137.485,51.551
	c-5.672,4.94-6.784,13.318-2.616,19.575l16.709,25.056C137.196,135.723,147.863,137.064,154.654,130.884z"/>
<path fill="#585858" d="M463.507,353.016l45.895-74.854c4.975-9.953-2.265-21.664-13.392-21.664c-3.018,0-18.963,0-15.949,0
	c0-50.584-18.304-99.415-51.548-137.485c-4.928-5.688-13.306-6.811-19.578-2.616l-25.057,16.709
	c-7.626,5.104-8.92,15.77-2.765,22.546c25.189,27.614,39.064,63.435,39.064,100.846c-3.014,0-17.965,0-14.951,0
	c-11.131,0-18.366,11.711-13.392,21.664l44.893,74.854C442.248,364.049,457.99,364.049,463.507,353.016z"/>
<g>
	<path fill="#585858" d="M312.022,219.788c-0.797-0.798-1.816-1.197-3.058-1.197h-22.743c-1.509-7.357-4.347-13.744-8.514-19.152
		h30.99c1.243,0,2.261-0.398,3.061-1.195c0.794-0.797,1.192-1.817,1.192-3.059v-13.57c0-1.242-0.398-2.261-1.192-3.06
		c-0.801-0.797-1.818-1.196-3.062-1.196H198.033c-1.242,0-2.261,0.399-3.06,1.195c-0.796,0.799-1.196,1.817-1.196,3.06v17.69
		c0,1.152,0.421,2.15,1.264,2.992c0.842,0.843,1.839,1.264,2.992,1.264h19.287c18.709,0,30.592,5.009,35.646,15.03h-54.932
		c-1.242,0-2.262,0.397-3.06,1.195c-0.796,0.8-1.196,1.817-1.196,3.06v13.568c0,1.241,0.398,2.262,1.196,3.058
		c0.798,0.799,1.819,1.196,3.06,1.196h56.797c-1.951,7.273-6.497,12.814-13.636,16.628c-7.139,3.813-16.559,5.721-28.264,5.721
		h-14.897c-1.153,0-2.15,0.421-2.992,1.263c-0.843,0.843-1.264,1.84-1.264,2.992v16.894c0,1.155,0.398,2.13,1.196,2.928
		c17.024,18.088,39.105,43.402,66.239,75.949c0.799,1.064,1.906,1.596,3.325,1.596h25.937c1.864,0,3.151-0.796,3.857-2.396
		c0.887-1.596,0.714-3.104-0.532-4.522c-25.889-31.746-46.241-55.51-61.05-71.294c15.075-1.772,27.312-6.651,36.712-14.63
		c9.398-7.98,15.116-18.356,17.158-31.125h22.345c1.241,0,2.261-0.398,3.058-1.197c0.8-0.796,1.199-1.815,1.199-3.057v-13.567
		C313.222,221.604,312.822,220.586,312.022,219.788z"/>
</g>
</svg>
