<?xml version="1.0" encoding="utf-8"?>
<!-- Generator: Adobe Illustrator 15.1.0, SVG Export Plug-In . SVG Version: 6.00 Build 0)  -->
<!DOCTYPE svg PUBLIC "-//W3C//DTD SVG 1.1//EN" "http://www.w3.org/Graphics/SVG/1.1/DTD/svg11.dtd">
<svg version="1.1" id="Layer_5" xmlns="http://www.w3.org/2000/svg" xmlns:xlink="http://www.w3.org/1999/xlink" x="0px" y="0px"
	 width="512px" height="512px" viewBox="0 0 512 512" enable-background="new 0 0 512 512" xml:space="preserve">
<g>
	<g>
		<path fill="#F92F00" d="M112,320v48h48c13.256,0,24,10.744,24,24s-10.744,24-24,24h-48v56h128V320H112z"/>
	</g>
	<g>
		<path fill="#F92F00" d="M473.112,258.84l-82.448-57.08c0.784-3.136,1.336-6.368,1.336-9.76c0-22.088-17.912-40-40-40
			c-8.688,0-16.672,2.84-23.232,7.544l16.336,11.304c7.248,5.024,9.072,15.016,4.049,22.264c-2.992,4.312-7.912,6.888-13.168,6.888
			c-3.257,0-6.408-0.984-9.097-2.84l-14.407-9.976c-0.192,1.6-0.48,3.168-0.48,4.816c0,22.088,17.912,40,40,40
			c6.888,0,13.272-1.904,18.936-4.968l83.969,58.128c2.68,1.855,5.832,2.84,9.088,2.84c5.248,0,10.168-2.576,13.168-6.889
			C482.176,273.855,480.36,263.864,473.112,258.84z"/>
	</g>
	<g>
		<circle cx="200" cy="128" r="8"/>
		<circle cx="152" cy="128" r="8"/>
		<path stroke="#000000" stroke-width="0.25" stroke-miterlimit="10" d="M176,184c17.648,0,32-14.352,32-32h-16
			c0,8.824-7.176,16-16,16s-16-7.176-16-16h-16C144,169.648,158.352,184,176,184z"/>
		<path d="M421.64,260.473l-14.848,21.439l-28.768-20.568l14.456-20.648l-13.112-9.168l-37.344,53.344l-53.913-37.744
			c-13.799-9.656-29.903-16.024-46.583-18.416l-27.072-3.856l-4.632-18.504c8.472-5.456,15.472-13.032,20.584-22.344H240
			c17.648,0,32-14.352,32-32v-48h8c13.232,0,24-10.768,24-24c0-13.232-10.768-24-24-24h-14.656C252.712,27.072,223.92,8,192,8h-32
			c-44.112,0-80,35.888-80,80v8v8v48c0,17.648,14.352,32,32,32h9.584c5.104,9.304,12.104,16.888,20.584,22.344l-4.632,18.504
			l-33.672,4.808c-12.296,1.768-24.256,6.328-34.592,13.216C45.936,258.424,32,284.464,32,312.512V384c0,22.056,17.944,40,40,40h8
			v80h192V332.313l52.313,23.239c6.607,2.952,13.647,4.448,20.911,4.448c16.88,0,32.704-8.288,42.313-22.168l47.256-68.248
			L421.64,260.473z M163.824,256.864L144,276.688V242L163.824,256.864z M176,267.313L196.688,288h-41.376L176,267.313z M208,242
			v34.688l-19.824-19.823L208,242z M240,168h-3.16c2.032-7.392,3.16-15.416,3.16-24v-8c8.824,0,16,7.176,16,16S248.824,168,240,168z
			 M256,124.448c-4.728-2.752-10.144-4.448-16-4.448v-16h16V124.448z M280,72c4.416,0,8,3.584,8,8s-3.584,8-8,8H177.368
			c3.304-9.312,12.2-16,22.632-16H280z M160,24h32c23.112,0,44.16,12.488,55.448,32H200c-19.32,0-35.48,13.768-39.192,32H96
			C96,52.712,124.712,24,160,24z M112,104v16c-5.856,0-11.272,1.696-16,4.448V104H112z M112,168c-8.824,0-16-7.176-16-16
			s7.176-16,16-16v8c0,8.584,1.128,16.608,3.16,24H112z M128,144v-40h96v40c0,34.016-18.84,56-48,56S128,178.016,128,144z M176,216
			c6.752,0,13.12-0.984,19.064-2.792l3.888,15.584L176,246l-22.952-17.208l3.888-15.584C162.88,215.016,169.248,216,176,216z
			 M48,384v-71.488c0-22.695,11.272-43.752,30.152-56.336c0.592-0.4,1.24-0.712,1.848-1.088V360v8v8h48v32H72
			C58.768,408,48,397.232,48,384z M160,376c8.824,0,16,7.176,16,16s-7.176,16-16,16h-16v-32H160z M184,488v-16h-16v16H96v-32h16v-16
			H96v-16h64c17.648,0,32-14.352,32-32s-14.352-32-32-32H96V247.856c3.328-1.016,6.696-1.872,10.136-2.36L128,242.368V304h96
			v-61.632l15.264,2.184c5.704,0.816,11.28,2.32,16.736,4.192V440h-16v16h16v32H184z M374.384,328.721
			C367.76,338.288,356.856,344,345.224,344c-5.008,0-9.848-1.032-14.407-3.064L272,314.8v-58.848
			c2.359,1.353,4.721,2.712,6.943,4.272l67.024,46.912l22.889-32.697l28.832,20.617L374.384,328.721z"/>
	</g>
</g>
</svg>
