<?xml version="1.0" encoding="utf-8"?>
<!-- Generator: Adobe Illustrator 15.1.0, SVG Export Plug-In . SVG Version: 6.00 Build 0)  -->
<!DOCTYPE svg PUBLIC "-//W3C//DTD SVG 1.1//EN" "http://www.w3.org/Graphics/SVG/1.1/DTD/svg11.dtd">
<svg version="1.1" id="Layer_1" xmlns="http://www.w3.org/2000/svg" xmlns:xlink="http://www.w3.org/1999/xlink" x="0px" y="0px"
	 width="489px" height="489px" viewBox="0 0 489 489" enable-background="new 0 0 489 489" xml:space="preserve">
<path d="M446.845,187.802l-42.066-4.054c-4.464-17.91-11.671-35.023-21.358-50.736l26.813-32.37
	c2.634-3.176,2.415-7.831-0.499-10.746l-45.5-45.504c-2.915-2.915-7.57-3.129-10.746-0.499l-32.394,26.821
	c-15.74-9.618-32.835-16.821-50.713-21.367l-4.058-42.125C265.93,3.125,262.484,0,258.367,0h-62.184
	c-4.117,0-7.558,3.125-7.952,7.223l-4.062,42.125c-17.878,4.542-34.973,11.749-50.713,21.367l-32.394-26.829
	c-3.172-2.63-7.827-2.416-10.746,0.499l-45.5,45.508c-2.915,2.919-3.133,7.574-0.5,10.75l26.806,32.366
	c-9.696,15.713-16.907,32.83-21.375,50.744L7.707,187.81c-4.089,0.398-7.199,3.843-7.18,7.952v64.506
	c-0.023,4.105,3.086,7.555,7.176,7.952l42.094,4.058c4.538,17.875,11.737,34.973,21.351,50.713l-26.833,32.391
	c-2.75,3.32-2.372,8.225,0.858,11.084l34.512,30.525c1.705,1.51,3.976,2.22,6.243,1.951c2.263-0.273,4.304-1.499,5.607-3.367
	l49.601-71.171c2.212-3.177,1.83-7.483-0.909-10.224c-47.587-47.587-47.591-124.747,0-172.338s124.751-47.591,172.343,0
	c47.591,47.591,47.591,124.751,0,172.338c-2.774,2.775-3.126,7.148-0.831,10.328l51.345,71.167c1.318,1.83,3.352,3.017,5.595,3.267
	c2.244,0.249,4.487-0.461,6.177-1.955l34.524-30.514c3.23-2.855,3.613-7.764,0.858-11.088l-26.825-32.395
	c9.618-15.74,16.82-32.834,21.362-50.713l42.07-4.058c4.089-0.397,7.199-3.847,7.176-7.952v-64.514
	C454.04,191.649,450.934,188.2,446.845,187.802z M438.038,253.006l-40.529,3.91c-3.441,0.332-6.273,2.849-7.011,6.228
	c-4.405,19.981-12.416,38.991-23.634,56.104c-1.92,2.936-1.702,6.778,0.534,9.475l25.597,30.898l-22.112,19.549l-42.305-58.638
	c48.984-54.037,47.416-137.869-4.709-189.995c-53.745-53.745-141.198-53.745-194.942,0c-52.153,52.153-53.694,136.047-4.636,190.077
	l-40.74,58.458l-21.999-19.455l25.592-30.898c2.236-2.704,2.451-6.543,0.531-9.479c-11.222-17.109-19.236-36.119-23.653-56.097
	c-0.726-3.375-3.551-5.892-6.984-6.228l-40.529-3.91v-49.987l40.529-3.914c3.457-0.335,6.298-2.868,7.02-6.266
	c4.3-19.986,12.311-38.984,23.61-56.02c1.943-2.938,1.732-6.801-0.515-9.513L61.264,96.049l35.211-35.214l31.258,25.885
	c2.7,2.239,6.543,2.454,9.474,0.53c17.109-11.222,36.12-19.236,56.097-23.649c3.383-0.749,5.896-3.589,6.228-7.035l3.91-40.58
	h47.669l3.913,40.58c0.332,3.446,2.845,6.286,6.225,7.035c19.98,4.413,38.991,12.432,56.101,23.653
	c2.931,1.924,6.773,1.709,9.474-0.53l31.255-25.885l35.21,35.21l-25.885,31.258c-2.244,2.711-2.45,6.575-0.508,9.509
	c11.305,17.036,19.314,36.038,23.618,56.023c0.711,3.395,3.543,5.931,6.992,6.266l40.533,3.91V253.006z"/>
<path fill="#F92F00" d="M255.141,368.639V247.302c20.143-11.631,33.365-33.712,33.365-56.468c0-31.094-17.781-53.741-47.564-60.573
	c-2.481-0.57-5.08,0.074-7.008,1.732c-1.923,1.662-2.946,4.14-2.75,6.676l2.642,33.911c-6.672,3.5-14.632,3.504-21.309,0.008
	l2.841-34.099c0.218-2.622-0.866-5.182-2.903-6.848c-2.037-1.667-4.76-2.224-7.285-1.491c-27.239,7.89-44.208,31.316-44.208,61.146
	c0,27.38,14.367,49.527,38.34,59.126v120.868c-16.981,10.024-33.342,30.364-33.084,56.246c0,30.841,17.582,53.639,46.979,60.994
	c2.497,0.624,5.139,0.012,7.105-1.646c1.967-1.658,3.017-4.159,2.821-6.723l-2.63-33.908c6.668-3.5,14.632-3.504,21.308-0.012
	l-2.84,34.103c-0.219,2.622,0.866,5.182,2.903,6.849c2.037,1.666,4.76,2.224,7.285,1.49c27.106-7.854,44.111-31.165,44.384-60.92
	C293.535,400.381,278.981,378.237,255.141,368.639z M255.996,468.379l2.126-25.554c0.226-2.72-0.948-5.365-3.118-7.02l-0.3-0.229
	c-14.07-10.68-33.564-10.551-47.49,0.312c-2.091,1.65-3.223,4.237-3.016,6.895l2.041,26.287
	c-15.385-7.667-23.989-22.314-23.989-41.609c-0.207-21.023,14.597-37.595,28.483-44.103c2.798-1.319,4.573-4.145,4.554-7.238
	V244.762c0.02-3.516-2.271-6.625-5.634-7.652c-20.177-6.091-32.682-23.645-32.682-45.82c0-17.859,7.944-32.624,21.339-40.841
	l-2.119,25.553c-0.227,2.724,0.952,5.373,3.129,7.023l0.297,0.227c14.051,10.675,33.525,10.562,47.447-0.273
	c0.07-0.055,0.148-0.117,0.215-0.171c1.989-1.658,3.051-4.179,2.852-6.762l-2.068-26.568c15.693,7.355,24.469,21.937,24.469,41.36
	c0,18.105-11.842,36.374-28.799,44.427c-2.786,1.323-4.562,4.132-4.562,7.218v131.814c0,3.523,2.31,6.629,5.681,7.647
	c20.181,6.095,32.709,23.649,32.709,45.75c-0.171,17.78-8.182,32.494-21.561,40.685H255.996z"/>
</svg>
