<?xml version="1.0" encoding="utf-8"?>
<!-- Generator: Adobe Illustrator 15.1.0, SVG Export Plug-In . SVG Version: 6.00 Build 0)  -->
<!DOCTYPE svg PUBLIC "-//W3C//DTD SVG 1.1//EN" "http://www.w3.org/Graphics/SVG/1.1/DTD/svg11.dtd">
<svg version="1.1" id="Capa_1" xmlns="http://www.w3.org/2000/svg" xmlns:xlink="http://www.w3.org/1999/xlink" x="0px" y="0px"
	 width="512px" height="512px" viewBox="0 0 512 512" enable-background="new 0 0 512 512" xml:space="preserve">
<g>
	<path fill="#FFFFFF" d="M143.598,291.891c0,4.143,3.357,7.5,7.5,7.5h47.156c-3.149,9.045-11.71,15.551-21.758,15.551h-15.572
		c-4.74,0-8.965,2.652-11.027,6.922c-2.061,4.269-1.51,9.226,1.439,12.938l45.789,57.643c1.48,1.863,3.669,2.836,5.878,2.836
		c1.635,0,3.281-0.532,4.66-1.629c3.242-2.575,3.783-7.295,1.208-10.537l-42.237-53.17h9.862c18.373,0,33.745-13.141,37.283-30.551
		h13.145c4.143,0,7.5-3.358,7.5-7.5c0-4.143-3.357-7.5-7.5-7.5h-12.965c-1.004-5.643-3.287-10.944-6.722-15.552h19.688
		c4.143,0,7.5-3.358,7.5-7.5s-3.357-7.5-7.5-7.5l-75.826-0.001c-4.143,0-7.5,3.358-7.5,7.5c0,4.143,3.357,7.5,7.5,7.5h16.176
		l0.02,0.001h10.134c5.906,0.005,11.458,2.306,15.635,6.482c2.579,2.577,4.438,5.683,5.487,9.069h-47.452
		C146.955,284.391,143.598,287.749,143.598,291.891L143.598,291.891z"/>
	<path fill="#FFFFFF" d="M507.753,441.444l-36.353-62.964c-2.071-3.588-6.66-4.816-10.245-2.744
		c-3.587,2.07-4.815,6.658-2.745,10.244l36.353,62.963c4.616,7.997,1.866,18.259-6.13,22.876c-7.996,4.614-18.26,1.866-22.875-6.13
		l-65.479-113.41c-2.235-3.874-2.83-8.387-1.673-12.707c1.158-4.32,3.929-7.932,7.803-10.168c3.872-2.236,8.384-2.832,12.707-1.674
		c4.32,1.158,7.933,3.93,10.168,7.803l11.625,20.137c2.07,3.588,6.656,4.816,10.245,2.745c3.587-2.071,4.816-6.658,2.745-10.245
		l-11.625-20.137c-4.239-7.344-11.086-12.598-19.277-14.791c-8.191-2.194-16.744-1.069-24.089,3.171
		c-7.344,4.239-12.597,11.085-14.791,19.276c-2.194,8.19-1.068,16.746,3.171,24.088l9.99,17.304h-19.377
		c-1.654-27.176-23.208-70.761-64.157-129.676c-21.107-30.369-42.396-57.539-54.125-72.138c7.275-2.04,13.32-7.041,16.75-13.62
		c16.919,2.088,30.404,18.16,35.446,34.353c1.025,3.286,1.942,6.61,2.914,10.129c3.738,13.547,7.604,27.556,17.637,38.634
		c1.48,1.635,3.519,2.465,5.563,2.465c1.796,0,3.597-0.641,5.032-1.941c3.069-2.78,3.306-7.524,0.524-10.594
		c-7.64-8.436-10.874-20.152-14.297-32.555c-0.961-3.482-1.955-7.082-3.052-10.6c-3.823-12.281-10.949-23.521-20.065-31.65
		c-8.063-7.192-17.172-11.585-26.741-12.98c-0.362-4.395-1.773-8.496-3.987-12.05c10.877-6.579,21.182-7.592,31.318-3.082
		c4.55,2.028,8.865,5.137,13.436,8.43c7.631,5.498,15.521,11.184,25.756,12.79c0.395,0.062,0.786,0.092,1.172,0.092
		c3.63,0,6.82-2.64,7.401-6.339c0.643-4.092-2.154-7.93-6.246-8.572c-6.697-1.051-12.825-5.467-19.314-10.142
		c-4.982-3.591-10.137-7.304-16.1-9.962c-15.874-7.064-32.748-4.809-49.072,6.471c-2.361-1.097-4.905-1.865-7.575-2.242
		c3.996-4.743,7.744-10.05,11.135-15.811c1.909-3.252,3.62-6.502,5.085-9.659c1.744-3.757,0.11-8.217-3.646-9.961
		c-3.756-1.743-8.216-0.111-9.96,3.646c-1.264,2.723-2.749,5.542-4.411,8.374c-5.549,9.431-12.095,17.375-19.032,23.138h-18.383
		c0.928-3.308,1.802-6.861,2.613-10.659c1.641-7.686,2.757-15.082,3.32-21.985c0.338-4.129-2.735-7.749-6.864-8.086
		c-4.119-0.345-7.747,2.736-8.085,6.864c-0.513,6.263-1.535,13.018-3.041,20.075c-1.082,5.066-2.306,9.734-3.601,13.79h-24.473
		c-1.286-4.028-2.509-8.695-3.597-13.789c-1.512-7.084-2.53-13.835-3.028-20.064c-0.331-4.129-3.93-7.208-8.074-6.878
		c-4.13,0.331-7.208,3.945-6.879,8.074c0.552,6.877,1.665,14.278,3.313,22c0.813,3.809,1.687,7.36,2.61,10.656h-18.391
		c-6.938-5.764-13.483-13.708-19.029-23.135c-13.692-23.296-13.386-42.245,0.891-54.802c4.918-4.333,12.593-9.394,22.406-3.373
		c9.494,5.815,20.529,6.114,29.521,0.803c8.018-4.732,16.96-4.738,24.983-0.001c8.99,5.31,20.029,5.011,29.539-0.805
		c4.691-2.882,12.124-5.666,22.397,3.374c5.429,4.784,8.876,10.52,10.25,17.049c0.854,4.054,4.828,6.647,8.883,5.795
		c4.055-0.853,6.649-4.83,5.796-8.884c-2.055-9.762-7.104-18.245-15.016-25.217c-12.756-11.223-27.017-12.965-40.146-4.907
		c-4.756,2.907-9.885,3.154-14.074,0.68c-6.353-3.751-13.118-5.652-20.114-5.652c-7,0-13.771,1.901-20.124,5.652
		c-4.189,2.474-9.313,2.229-14.053-0.675c-13.147-8.067-27.41-6.326-40.157,4.901c-9.265,8.15-14.74,18.729-15.831,30.595
		c-1.204,13.074,2.807,27.564,11.921,43.071c3.388,5.758,7.134,11.063,11.131,15.805c-13.155,1.861-23.309,13.189-23.309,26.85
		c0,12.42,8.394,22.91,19.805,26.112c-7.201,8.96-17.991,22.637-30.076,38.82c-2.479,3.319-1.798,8.019,1.521,10.497
		c1.348,1.006,2.922,1.491,4.483,1.491c2.284,0,4.542-1.041,6.015-3.013c16.914-22.648,31.236-40.305,36.557-46.784h104.228
		c7.683,9.358,34.127,42.025,60.306,79.69c47.701,68.63,60.085,103.549,61.455,121.115h-94.667
		c-17.502,0-31.741,14.243-31.741,31.751c0,9.712,4.39,18.414,11.282,24.241c-6.896,5.828-11.286,14.532-11.286,24.248
		c0,6.142,1.759,11.878,4.791,16.741H100.582c-18.824,0-40.569-11.611-53.771-23.118C32.299,438.294,15,415.784,15,380.391
		c0-16.777,11.209-52.731,64.607-128.741c2.381-3.39,1.564-8.068-1.825-10.448c-3.391-2.381-8.067-1.564-10.447,1.825
		C22.655,306.625,0,352.841,0,380.391c0,41.033,20.096,67.164,36.955,81.861c18.685,16.287,43.659,26.813,63.627,26.813
		l298.591,0.003c17.504,0,31.745-14.241,31.745-31.746c0-9.714-4.39-18.419-11.285-24.247c2.324-1.965,4.362-4.255,6.046-6.804
		l27.088,46.92c5.873,10.173,16.565,15.866,27.546,15.866c5.382,0,10.833-1.367,15.82-4.247
		C511.291,476.058,516.505,456.604,507.753,441.444L507.753,441.444z M113.591,149.154c0-6.685,5.438-12.123,12.123-12.123h126.592
		c6.686,0,12.123,5.438,12.123,12.123c0,6.685-5.439,12.123-12.123,12.123H125.714C119.03,161.277,113.591,155.838,113.591,149.154
		L113.591,149.154z M415.918,457.321c0,9.233-7.513,16.745-16.745,16.745h-121.67c-0.023,0-0.045-0.004-0.068-0.004h-9.285
		c-9.202-0.036-16.679-7.53-16.679-16.741c0-9.235,7.512-16.747,16.745-16.747H399.17
		C408.406,440.574,415.918,448.087,415.918,457.321z M399.17,425.574H268.216c-9.232,0-16.742-7.51-16.742-16.742
		c0-9.236,7.51-16.75,16.741-16.75h130.953c2.791,0,5.498,0.693,7.926,2l8.8,15.242C415.63,418.326,408.24,425.574,399.17,425.574
		L399.17,425.574z"/>
</g>
</svg>
