<?xml version="1.0" encoding="utf-8"?>
<!-- Generator: Adobe Illustrator 15.1.0, SVG Export Plug-In . SVG Version: 6.00 Build 0)  -->
<!DOCTYPE svg PUBLIC "-//W3C//DTD SVG 1.1//EN" "http://www.w3.org/Graphics/SVG/1.1/DTD/svg11.dtd">
<svg version="1.1" id="Capa_1" xmlns="http://www.w3.org/2000/svg" xmlns:xlink="http://www.w3.org/1999/xlink" x="0px" y="0px"
	 width="512px" height="512px" viewBox="0 0 512 512" enable-background="new 0 0 512 512" xml:space="preserve">
<g>
	<g>
		<g>
			<path fill="#FC7A7A" d="M504.973,59.547L466.05,66.31c-5.43,0.35-10.859-0.04-16.149-1.15c-0.19-0.03-0.37-0.07-0.561-0.11
				c-3.41-0.74-6.77-1.78-10.02-3.12L312.48,9.76c-8.061-3.32-17.15-2.97-24.931,0.96L137.37,86.49c-6.05,3.06-9.87,9.26-9.87,16.04
				c0,10.16,8.31,17.97,17.93,17.97c1.45,0,2.93-0.18,4.41-0.55l117.34-28.43l0.44-0.11L512,169.36V65.458
				C512,61.734,508.642,58.909,504.973,59.547z"/>
			<path fill="#F95A5A" d="M504.973,59.547L466.05,66.31c-5.43,0.35-10.859-0.04-16.149-1.15c-0.19-0.03-0.37-0.07-0.561-0.11
				c-3.41-0.74-6.77-1.78-10.02-3.12L312.48,9.76c-8.061-3.32-17.15-2.97-24.931,0.96L137.37,86.49c-6.05,3.06-9.87,9.26-9.87,16.04
				c0,6.378,3.276,11.827,8.093,15.001c0.57-0.375,1.158-0.729,1.777-1.041L287.55,40.72c7.78-3.93,16.87-4.28,24.931-0.96
				l126.84,52.17c3.25,1.34,6.609,2.38,10.02,3.12c0.19,0.04,0.37,0.08,0.561,0.11c5.29,1.11,10.72,1.5,16.149,1.15l38.923-6.763
				c3.669-0.638,7.027,2.187,7.027,5.911v-30C512,61.734,508.642,58.909,504.973,59.547L504.973,59.547z"/>
			<path fill="#F95A5A" d="M371.61,95.73c0-8.902-5.839-16.75-14.365-19.305c-5.923-1.775-11.847-3.55-17.775-5.325l-11.359-3.4
				L293.02,57.19c-4.125-1.845-8.572-2.205-12.644-1.279c0,0-5.901,1.401-10.386,6.439c-6.147,6.906-6.996,18.233-2.811,29.17
				c73.521,52.755,115.28,74.074,125.287,63.964C398.985,148.899,392.032,128.98,371.61,95.73L371.61,95.73z"/>
			<path fill="#FC7A7A" d="M371.61,95.73c-10.71-3.21-21.42-6.42-32.141-9.63l-11.359-3.4L293.02,72.19
				c-8.25-3.69-17.789-1.44-23.029,5.16c-0.221,0.27-0.43,0.55-0.62,0.84c-2.841,4.04-3.44,8.92-2.19,13.33
				c1.09,3.91,3.641,7.45,7.381,9.72l107.569,73.19c21.271,14.47,47.42,19.87,72.67,15.02l52.355-10.273
				c2.814-0.552,4.845-3.019,4.845-5.888v-6.571L371.61,95.73z"/>
		</g>
	</g>
	<g>
		<g>
			<path fill="#FC7A7A" d="M7.027,452.453l38.923-6.763c5.43-0.351,10.86,0.04,16.15,1.149c0.19,0.03,0.37,0.07,0.56,0.11
				c3.41,0.74,6.77,1.78,10.02,3.12l126.84,52.17c8.06,3.319,17.15,2.97,24.93-0.96l150.18-75.771c6.05-3.06,9.87-9.26,9.87-16.04
				c0-10.16-8.31-17.97-17.93-17.97c-1.45,0-2.931,0.18-4.41,0.55L244.82,420.48l-0.44,0.109L0,342.641v103.901
				C0,450.266,3.358,453.091,7.027,452.453L7.027,452.453z"/>
			<path fill="#F95A5A" d="M376.407,394.469c-0.57,0.375-1.158,0.729-1.777,1.041L224.45,471.28c-7.78,3.93-16.87,4.279-24.93,0.96
				L72.68,420.07c-3.25-1.341-6.61-2.381-10.02-3.12c-0.19-0.04-0.37-0.08-0.56-0.11c-5.29-1.109-10.72-1.5-16.15-1.149
				l-38.923,6.763C3.358,423.091,0,420.266,0,416.542v30c0,3.724,3.358,6.549,7.027,5.911l38.923-6.763
				c5.43-0.351,10.86,0.04,16.15,1.149c0.19,0.03,0.37,0.07,0.56,0.11c3.41,0.739,6.77,1.779,10.02,3.12l126.84,52.17
				c8.06,3.319,17.15,2.97,24.93-0.96l150.18-75.771c6.05-3.06,9.87-9.26,9.87-16.04C384.5,403.092,381.224,397.644,376.407,394.469
				L376.407,394.469z"/>
			<path fill="#F95A5A" d="M140.39,416.27c0,8.902,5.838,16.75,14.365,19.306c5.923,1.774,11.847,3.55,17.775,5.325l11.36,3.399
				l35.09,10.51c4.125,1.846,8.572,2.205,12.644,1.279c0,0,5.902-1.401,10.386-6.438c6.147-6.906,6.996-18.233,2.81-29.17
				c-73.521-52.756-115.28-74.074-125.287-63.965C113.015,363.102,119.968,383.02,140.39,416.27L140.39,416.27z"/>
			<path fill="#FC7A7A" d="M140.39,416.27c10.71,3.211,21.42,6.421,32.14,9.631l11.36,3.399l35.09,10.51
				c8.25,3.69,17.79,1.44,23.03-5.159c0.22-0.271,0.43-0.551,0.62-0.841c2.84-4.04,3.44-8.92,2.19-13.329
				c-1.09-3.91-3.64-7.45-7.38-9.721L129.87,337.57C108.6,323.1,82.45,317.7,57.2,322.55L4.845,332.823
				C2.03,333.375,0,335.842,0,338.71v6.571L140.39,416.27z"/>
		</g>
	</g>
	<g>
		<ellipse fill="#E56D6A" cx="255.945" cy="256" rx="105.875" ry="105.875"/>
		<path fill="#F92F00" d="M287.701,154.938c26.758,19.218,44.189,50.603,44.189,86.062c0,58.482-47.408,105.893-105.892,105.893
			c-11.044,0-21.692-1.693-31.701-4.83c17.374,12.478,38.678,19.83,61.701,19.83c58.482,0,105.892-47.41,105.892-105.893
			C361.891,208.562,330.696,168.411,287.701,154.938z"/>
	</g>
</g>
<g>
	<path fill="#FFFFFF" d="M292.477,195.948h-74.956v14.893h26.434c9.708,0,17.987,6.224,21.061,14.892h-47.494v14.892h47.494
		c-3.073,8.667-11.353,14.892-21.061,14.892h-26.434v14.893l43.645,43.645l10.53-10.531l-33.113-33.113h5.372
		c17.979,0,33.022-12.812,36.481-29.785h12.041v-14.892h-12.041c-1.119-5.5-3.457-10.562-6.716-14.892h18.757V195.948z"/>
</g>
</svg>
